<mxfile host="app.diagrams.net" modified="2021-05-16T21:55:00.876Z" agent="5.0 (Windows NT 10.0; Win64; x64) AppleWebKit/537.36 (KHTML, like Gecko) Chrome/90.0.4430.212 Safari/537.36" etag="2KFV8V72j8j6Z27egdSh" version="14.6.13" type="github">
  <diagram id="fBpVT535F2wwj-f8DR_Z" name="Page-1">
    <mxGraphModel dx="1422" dy="737" grid="1" gridSize="10" guides="1" tooltips="1" connect="1" arrows="1" fold="1" page="1" pageScale="1" pageWidth="827" pageHeight="1169" math="0" shadow="0">
      <root>
        <mxCell id="0" />
        <mxCell id="1" parent="0" />
        <mxCell id="6yEd7_QXoCFeR8RC3rQb-1" value="&lt;div style=&quot;text-align: left&quot;&gt;&lt;font color=&quot;#ff0000&quot;&gt;&lt;b&gt;Шаг 1:&lt;/b&gt; &lt;/font&gt;&lt;span&gt;Выбор платформы&lt;/span&gt;&lt;/div&gt;для размещения курса" style="rounded=0;whiteSpace=wrap;html=1;" vertex="1" parent="1">
          <mxGeometry x="40" y="40" width="310" height="40" as="geometry" />
        </mxCell>
        <mxCell id="6yEd7_QXoCFeR8RC3rQb-2" value="&lt;font color=&quot;#ff0000&quot;&gt;&lt;b&gt;Шаг 2:&lt;/b&gt;&amp;nbsp;&lt;/font&gt;Определение структуры курса" style="rounded=0;whiteSpace=wrap;html=1;" vertex="1" parent="1">
          <mxGeometry x="40" y="110" width="310" height="40" as="geometry" />
        </mxCell>
        <mxCell id="6yEd7_QXoCFeR8RC3rQb-3" value="&lt;font color=&quot;#ff0000&quot;&gt;&lt;b&gt;Шаг 3:&lt;/b&gt;&amp;nbsp;&lt;/font&gt;Генерация практических задач" style="rounded=0;whiteSpace=wrap;html=1;" vertex="1" parent="1">
          <mxGeometry x="40" y="250" width="310" height="40" as="geometry" />
        </mxCell>
        <mxCell id="6yEd7_QXoCFeR8RC3rQb-4" value="3.1 Создание шаблона с формулировкой задачи" style="rounded=0;whiteSpace=wrap;html=1;" vertex="1" parent="1">
          <mxGeometry x="320" y="190" width="410" height="40" as="geometry" />
        </mxCell>
        <mxCell id="6yEd7_QXoCFeR8RC3rQb-5" value="3.2 Генерация коэффициентов и ответа для задачи" style="rounded=0;whiteSpace=wrap;html=1;" vertex="1" parent="1">
          <mxGeometry x="320" y="230" width="410" height="40" as="geometry" />
        </mxCell>
        <mxCell id="6yEd7_QXoCFeR8RC3rQb-6" value="3.2 Запись коэффициентов и ответов в шаблон" style="rounded=0;whiteSpace=wrap;html=1;" vertex="1" parent="1">
          <mxGeometry x="320" y="270" width="410" height="40" as="geometry" />
        </mxCell>
        <mxCell id="6yEd7_QXoCFeR8RC3rQb-7" value="3.3 Создание задачи для перевода шаблона в другие форматы" style="rounded=0;whiteSpace=wrap;html=1;" vertex="1" parent="1">
          <mxGeometry x="320" y="310" width="410" height="40" as="geometry" />
        </mxCell>
        <mxCell id="6yEd7_QXoCFeR8RC3rQb-9" value="3.4 Создание исполняемого файла для пользователя" style="rounded=0;whiteSpace=wrap;html=1;" vertex="1" parent="1">
          <mxGeometry x="320" y="350" width="410" height="40" as="geometry" />
        </mxCell>
      </root>
    </mxGraphModel>
  </diagram>
</mxfile>
